<svg width="21" height="21" viewBox="0 0 21 21" fill="none" xmlns="http://www.w3.org/2000/svg">
<path d="M20.2146 17.943L16.3228 14.0511C16.1471 13.8755 15.909 13.7779 15.6592 13.7779H15.0229C16.1003 12.3999 16.7405 10.6668 16.7405 8.78137C16.7405 4.2962 13.1063 0.66201 8.62113 0.66201C4.13596 0.66201 0.50177 4.2962 0.50177 8.78137C0.50177 13.2665 4.13596 16.9007 8.62113 16.9007C10.5065 16.9007 12.2397 16.2605 13.6177 15.1832V15.8194C13.6177 16.0693 13.7152 16.3074 13.8909 16.483L17.7827 20.3749C18.1497 20.7418 18.743 20.7418 19.106 20.3749L20.2107 19.2702C20.5777 18.9032 20.5777 18.3099 20.2146 17.943ZM8.62113 13.7779C5.86133 13.7779 3.6246 11.5451 3.6246 8.78137C3.6246 6.02157 5.85742 3.78484 8.62113 3.78484C11.3809 3.78484 13.6177 6.01766 13.6177 8.78137C13.6177 11.5412 11.3848 13.7779 8.62113 13.7779Z" fill="#969696"/>
</svg>
