<svg width="16" height="16" viewBox="0 0 16 16" fill="none" xmlns="http://www.w3.org/2000/svg">
<path fill-rule="evenodd" clip-rule="evenodd" d="M7.78575 1.65481C4.26131 1.65481 1.40436 4.51176 1.40436 8.0362C1.40319 8.97649 1.61045 9.90535 2.01123 10.7559L1.41776 13.6512C1.39663 13.7546 1.40147 13.8616 1.43183 13.9626C1.46219 14.0637 1.51714 14.1556 1.59174 14.2302C1.66635 14.3048 1.7583 14.3598 1.85934 14.3901C1.96039 14.4205 2.06739 14.4253 2.17077 14.4042L5.066 13.8107C5.89175 14.2 6.8145 14.417 7.78575 14.417C11.3102 14.417 14.1671 11.5606 14.1671 8.03556C14.1671 4.51176 11.3102 1.65417 7.78575 1.65417" fill="#9D6FFF"/>
</svg>
