<svg width="14" height="15" viewBox="0 0 14 15" fill="none" xmlns="http://www.w3.org/2000/svg">
<path d="M12.5417 10.3685L13.0127 7.6428C13.0403 7.48305 13.0327 7.31918 12.9904 7.16266C12.9481 7.00615 12.8722 6.86076 12.7678 6.73668C12.6634 6.6126 12.5332 6.51282 12.3863 6.44431C12.2393 6.3758 12.0792 6.34022 11.9171 6.34007H8.45513C8.37441 6.33999 8.29467 6.32235 8.22145 6.28837C8.14823 6.2544 8.08327 6.2049 8.03109 6.14331C7.97891 6.08172 7.94075 6.00952 7.91926 5.93171C7.89777 5.8539 7.89347 5.77235 7.90665 5.69271L8.34958 2.99036C8.42112 2.55158 8.40065 2.10271 8.28945 1.67226C8.24138 1.49448 8.14928 1.33169 8.02166 1.19892C7.89403 1.06616 7.73499 0.967705 7.55925 0.912664L7.46238 0.881264C7.24353 0.811361 7.00626 0.82761 6.79899 0.926693C6.57184 1.03626 6.40616 1.23601 6.3447 1.47317L6.0267 2.69842C5.92563 3.08837 5.77851 3.46492 5.58844 3.82011C5.31053 4.3392 4.88162 4.7554 4.43602 5.13954L3.474 5.96795C3.34063 6.0832 3.23647 6.22841 3.17005 6.39168C3.10362 6.55495 3.07683 6.73164 3.09186 6.90726L3.63501 13.1824C3.6589 13.4598 3.78591 13.7182 3.99097 13.9066C4.19602 14.0949 4.46423 14.1996 4.74267 14.1999H7.84852C10.1741 14.1999 12.1589 12.5792 12.541 10.3685" fill="#9D6EFF"/>
<path opacity="0.5" fill-rule="evenodd" clip-rule="evenodd" d="M0.983541 5.83898C1.11265 5.83333 1.23895 5.87779 1.33606 5.96307C1.43316 6.04835 1.49356 6.16785 1.50464 6.29661L2.15266 13.803C2.16364 13.9148 2.15172 14.0277 2.11762 14.1347C2.08352 14.2417 2.02796 14.3407 1.95434 14.4255C1.88072 14.5103 1.79058 14.5792 1.68943 14.6281C1.58827 14.6769 1.47823 14.7046 1.36601 14.7094C1.2538 14.7143 1.14177 14.6962 1.03677 14.6564C0.931769 14.6165 0.836001 14.5556 0.755314 14.4775C0.674628 14.3993 0.610717 14.3056 0.567484 14.2019C0.524252 14.0982 0.502605 13.9868 0.503867 13.8745V6.33936C0.503921 6.21022 0.553843 6.08607 0.643216 5.99284C0.732588 5.89961 0.854509 5.84449 0.983541 5.83898Z" fill="#9D6EFF"/>
</svg>
